<?xml version="1.0" encoding="utf-8" standalone="no"?>
<!DOCTYPE svg PUBLIC "-//W3C//DTD SVG 1.1//EN"
  "http://www.w3.org/Graphics/SVG/1.1/DTD/svg11.dtd">
<svg xmlns:xlink="http://www.w3.org/1999/xlink" width="490.176pt" height="288.99pt" viewBox="0 0 490.176 288.99" xmlns="http://www.w3.org/2000/svg" version="1.1">
 <metadata>
  <rdf:RDF xmlns:dc="http://purl.org/dc/elements/1.1/" xmlns:cc="http://creativecommons.org/ns#" xmlns:rdf="http://www.w3.org/1999/02/22-rdf-syntax-ns#">
   <cc:Work>
    <dc:type rdf:resource="http://purl.org/dc/dcmitype/StillImage"/>
    <dc:date>2026-06-26T09:22:50.592053</dc:date>
    <dc:format>image/svg+xml</dc:format>
    <dc:creator>
     <cc:Agent>
      <dc:title>Matplotlib v3.7.2, https://matplotlib.org/</dc:title>
     </cc:Agent>
    </dc:creator>
   </cc:Work>
  </rdf:RDF>
 </metadata>
 <defs>
  <style type="text/css">*{stroke-linejoin: round; stroke-linecap: butt}</style>
 </defs>
 <g id="figure_1">
  <g id="patch_1">
   <path d="M 0 288.99 
L 490.176 288.99 
L 490.176 0 
L 0 0 
L 0 288.99 
z
" style="fill: none"/>
  </g>
  <g id="axes_1">
   <g id="patch_2">
    <path d="M 89.04721 206.836974 
C 99.959189 208.215477 111.038793 207.343492 121.600782 204.274949 
C 132.162771 201.206406 141.984821 196.005897 150.45947 188.995057 
C 158.934119 181.984216 165.88298 173.310618 170.876288 163.510697 
C 175.869596 153.710777 178.802244 142.990817 179.492858 132.013813 
C 180.183472 121.036809 178.617515 110.033821 174.891835 99.685349 
C 171.166155 89.336877 165.359177 79.86075 157.830043 71.843038 
C 150.30091 63.825325 141.208105 57.434796 131.11399 53.066682 
C 121.019876 48.698569 110.136927 46.444819 99.138219 46.444819 
L 99.138219 126.958332 
z
" style="fill: #264653; stroke: #ffffff; stroke-width: 1.25; stroke-linejoin: miter"/>
   </g>
   <g id="patch_3">
    <path d="M 29.390649 84.154263 
C 22.124425 95.604003 17.86731 108.706063 17.015825 122.240077 
C 16.164339 135.774091 18.745766 149.306394 24.519664 161.576547 
C 30.293562 173.8467 39.07492 184.461536 50.045817 192.432357 
C 61.016713 200.403178 73.825613 205.474578 87.279455 207.174192 
L 97.370464 127.29555 
z
" style="fill: #606c38; stroke: #ffffff; stroke-width: 1.25; stroke-linejoin: miter"/>
   </g>
   <g id="patch_4">
    <path d="M 97.763485 45.572395 
C 84.202712 45.572398 70.859201 48.998432 58.975806 55.531386 
C 47.092412 62.06434 37.049908 71.494882 29.783685 82.944622 
L 97.7635 126.085909 
z
" style="fill: #bc6c25; stroke: #ffffff; stroke-width: 1.25; stroke-linejoin: miter"/>
   </g>
   <g id="text_1">
    <text style="fill: #ffffff; font: 700 14px 'Times New Roman'; text-anchor: middle" x="145.342137" y="133.003203" transform="rotate(-0 145.342137 133.003203)">52%</text>
   </g>
   <g id="text_2">
    <text style="fill: #ffffff; font: 700 14px 'Times New Roman'; text-anchor: middle" x="55.481254" y="150.145092" transform="rotate(-0 55.481254 150.145092)">32%</text>
   </g>
   <g id="text_3">
    <text style="fill: #ffffff; font: 700 14px 'Times New Roman'; text-anchor: middle" x="75.460576" y="88.655027" transform="rotate(-0 75.460576 88.655027)">16%</text>
   </g>
  </g>
  <g id="axes_2">
   <g id="patch_5">
    <path d="M 220.35762 222.2496 
L 477.553568 222.2496 
L 477.553568 31.5504 
L 220.35762 31.5504 
L 220.35762 222.2496 
z
" clip-path="url(#p52bd32054d)" style="fill: none; stroke: #9a9a9a; stroke-width: 0.75; stroke-linejoin: miter"/>
   </g>
   <g id="line2d_1">
    <path d="M 228.744445 97.2078 
L 469.166743 97.2078 
" clip-path="url(#p52bd32054d)" style="fill: none; stroke: #d0d0d0; stroke-width: 0.55; stroke-linecap: square"/>
   </g>
   <g id="line2d_2">
    <path d="M 228.744445 156.5922 
L 469.166743 156.5922 
" clip-path="url(#p52bd32054d)" style="fill: none; stroke: #d0d0d0; stroke-width: 0.55; stroke-linecap: square"/>
   </g>
   <g id="patch_6">
    <path d="M 235.733465 76.67418 
L 256.141404 76.67418 
L 256.141404 58.35702 
L 235.733465 58.35702 
z
" clip-path="url(#p52bd32054d)" style="fill: #bc6c25"/>
   </g>
   <g id="text_4">
    <text style="fill: #1f1f1f; font: 700 13.5px 'Times New Roman'; text-anchor: start" x="266.764715" y="66.377108" transform="rotate(-0 266.764715 66.377108)">Scope 1</text>
   </g>
   <g id="text_5">
    <text style="fill: #454545; font: 10.3px 'Times New Roman'; text-anchor: start" x="266.764715" y="77.517614" transform="rotate(-0 266.764715 77.517614)">Direct operational emissions</text>
   </g>
   <g id="patch_7">
    <path d="M 235.733465 136.05858 
L 256.141404 136.05858 
L 256.141404 117.74142 
L 235.733465 117.74142 
z
" clip-path="url(#p52bd32054d)" style="fill: #606c38"/>
   </g>
   <g id="text_6">
    <text style="fill: #1f1f1f; font: 700 13.5px 'Times New Roman'; text-anchor: start" x="266.764715" y="125.761508" transform="rotate(-0 266.764715 125.761508)">Scope 2</text>
   </g>
   <g id="text_7">
    <text style="fill: #454545; font: 10.3px 'Times New Roman'; text-anchor: start" x="266.764715" y="136.892358" transform="rotate(-0 266.764715 136.892358)">Indirect emissions from purchased energy</text>
   </g>
   <g id="patch_8">
    <path d="M 235.733465 195.44298 
L 256.141404 195.44298 
L 256.141404 177.12582 
L 235.733465 177.12582 
z
" clip-path="url(#p52bd32054d)" style="fill: #264653"/>
   </g>
   <g id="text_8">
    <text style="fill: #1f1f1f; font: 700 13.5px 'Times New Roman'; text-anchor: start" x="266.764715" y="185.145908" transform="rotate(-0 266.764715 185.145908)">Scope 3</text>
   </g>
   <g id="text_9">
    <text style="fill: #454545; font: 10.3px 'Times New Roman'; text-anchor: start" x="266.764715" y="196.286414" transform="rotate(-0 266.764715 196.286414)">Other indirect value-chain emissions</text>
   </g>
  </g>
  <g id="text_10">
   <text style="fill: #4a4a4a; font: 8.2px 'Times New Roman'; text-anchor: start" x="9.216" y="285.780594" transform="rotate(-0 9.216 285.780594)">Note: Values represent the mean percentage share of total greenhouse gas emissions. Scope classifications follow the GHG Protocol.</text>
  </g>
 </g>
 <defs>
  <clipPath id="p52bd32054d">
   <rect x="209.175188" y="1.44" width="279.560812" height="250.92"/>
  </clipPath>
 </defs>
</svg>
